<svg width="166" height="44" viewBox="0 0 166 44" fill="none" xmlns="http://www.w3.org/2000/svg">
<path fill-rule="evenodd" clip-rule="evenodd" d="M24.3616 0C24.8902 1.46778e-05 25.3051 0.427586 25.3188 0.939355C25.4965 7.58024 29.2538 13.3842 34.6825 16.3989C35.0673 16.6127 35.2178 17.0169 35.1878 17.3712C35.1577 17.7259 34.9404 18.1004 34.521 18.2428C32.8547 18.8087 31.2659 19.5614 29.8038 20.476C29.4817 20.6774 29.0605 20.6758 28.7406 20.4436C25.9752 18.4354 23.6753 15.839 21.9608 12.8594C21.947 12.8355 21.9223 12.819 21.8845 12.8189C21.8466 12.8189 21.8216 12.8355 21.8076 12.8596C19.6265 16.625 16.4595 19.7472 12.6919 21.9209C12.6679 21.9348 12.6514 21.9597 12.6515 21.9974C12.6517 22.035 12.6683 22.0597 12.6923 22.0734C16.5097 24.2486 19.6846 27.3779 21.868 31.1926C21.8819 31.2168 21.9069 31.2337 21.9449 31.2338C21.9829 31.2339 22.0077 31.2172 22.0216 31.1933C24.3578 27.144 27.7897 23.7886 31.9383 21.6052C35.2433 19.8137 39.0299 18.7749 43.0399 18.693C43.5741 18.6821 43.9998 19.1155 43.9998 19.6382V24.3618C43.9997 24.8913 43.5704 25.3054 43.0595 25.319C33.3802 25.5764 25.5761 33.3804 25.3188 43.0598C25.3051 43.5707 24.8911 44 24.3616 44H19.638C19.1085 44 18.6944 43.5707 18.6808 43.0598C18.4234 33.3804 10.6194 25.5764 0.940009 25.319C0.429125 25.3054 5.8855e-05 24.8912 0 24.3618V19.6382C1.47143e-05 19.1087 0.429095 18.6946 0.940009 18.681C10.6194 18.4236 18.4234 10.6196 18.6808 0.940227C18.6944 0.429313 19.1085 1.47142e-05 19.638 0H24.3616ZM19.5863 43.5509L19.638 43.5537C19.6041 43.5537 19.5711 43.5499 19.5391 43.5435C19.5546 43.5466 19.5704 43.5493 19.5863 43.5509ZM21.5219 31.4764C21.5273 31.4833 21.5331 31.4898 21.5387 31.4964C21.5319 31.4885 21.5253 31.4804 21.5189 31.472L21.5219 31.4764ZM43.5513 19.5981C43.551 19.5943 43.5513 19.5904 43.5509 19.5866L43.5494 19.577C43.5502 19.584 43.5508 19.591 43.5513 19.5981ZM43.5339 19.5005C43.5327 19.4964 43.5321 19.4921 43.5309 19.4881L43.5291 19.4837C43.5309 19.4893 43.5323 19.4949 43.5339 19.5005ZM43.5152 19.4456L43.5139 19.4419L43.5106 19.4351C43.5121 19.4386 43.5137 19.4421 43.5152 19.4456ZM41.5822 19.2129C41.5738 19.2135 41.5655 19.2144 41.5571 19.2151C41.578 19.2134 41.5988 19.2117 41.6197 19.21C41.6072 19.211 41.5947 19.2119 41.5822 19.2129ZM34.3774 17.8201C34.2792 17.8534 34.1814 17.8877 34.0837 17.9223L34.3774 17.8201ZM34.613 17.6586C34.6011 17.6729 34.5882 17.6864 34.5746 17.6994C34.5785 17.6957 34.5827 17.6923 34.5864 17.6885C34.5956 17.6789 34.6045 17.6688 34.613 17.6586Z" fill="#00643F"/>
<path d="M90.7637 42.8012C91.1257 43.2955 90.7727 43.9916 90.16 43.9916H80.5675C80.3244 43.9916 80.0965 43.8736 79.9563 43.6751L67.5369 25.006C67.2669 24.6238 66.7161 24.5805 66.3896 24.9159L62.9772 28.4212C62.8412 28.5609 62.7651 28.7482 62.7651 28.9431L62.7651 43.2433C62.7651 43.6566 62.43 43.9916 62.0168 43.9916H54.7481C54.3348 43.9916 53.9998 43.6566 53.9998 43.2433L53.9998 1.00864C53.9998 0.595376 54.3348 0.260355 54.7481 0.260355H62.0168C62.43 0.260355 62.7651 0.595374 62.7651 1.00864V15.9275C62.7651 16.6058 63.5953 16.9341 64.0593 16.4392L79.0036 0.496888C79.145 0.345977 79.3426 0.260355 79.5495 0.260355H88.9385C89.6043 0.260355 89.9386 1.06452 89.469 1.53645L73.7174 17.3662C73.4576 17.6274 73.4265 18.0389 73.6442 18.3362L90.7637 42.8012Z" fill="#00643F"/>
<path d="M103.731 11.3688C104.145 11.3688 104.48 11.7039 104.48 12.1171L104.48 43.2433C104.48 43.6566 104.145 43.9916 103.731 43.9916H96.8677C96.4545 43.9916 96.1194 43.6566 96.1194 43.2433L96.1194 12.1171C96.1194 11.7039 96.4544 11.3688 96.8677 11.3688H103.731ZM103.731 0C104.145 0 104.48 0.335019 104.48 0.748285V6.85987C104.48 7.27314 104.145 7.60815 103.731 7.60815H96.8677C96.4544 7.60815 96.1194 7.27313 96.1194 6.85987V0.748284C96.1194 0.335018 96.4544 0 96.8677 0H103.731Z" fill="#00643F"/>
<path d="M128.346 18.977C125.028 18.977 122.801 20.057 121.663 22.217C121.027 23.432 120.709 25.3027 120.709 27.8291V43.2433C120.709 43.6566 120.373 43.9916 119.96 43.9916H113.154C112.741 43.9916 112.406 43.6566 112.406 43.2433L112.406 12.1171C112.406 11.7039 112.741 11.3688 113.154 11.3688H119.526C119.94 11.3688 120.275 11.7039 120.275 12.1171V14.1847C120.275 14.9421 121.302 15.2389 121.749 14.6273C122.424 13.7028 123.041 13.012 123.601 12.5549C125.144 11.2628 127.15 10.6167 129.618 10.6167C129.739 10.6167 129.842 10.6226 129.927 10.6344C129.972 10.6406 129.985 10.6453 130.031 10.6459C130.398 10.6507 130.718 10.9626 130.718 11.33V18.2856C130.718 18.7316 130.33 19.0767 129.886 19.0416C129.689 19.0261 129.504 19.0142 129.329 19.0059C128.924 18.9866 128.596 18.977 128.346 18.977Z" fill="#00643F"/>
<path d="M161.874 15.3609C164.535 18.6973 165.866 22.6412 165.866 27.1926C165.866 31.8212 164.535 35.7844 161.874 39.0822C159.212 42.3607 155.172 44 149.753 44C144.333 44 140.293 42.3607 137.632 39.0822C134.97 35.7844 133.639 31.8212 133.639 27.1926C133.639 22.6412 134.97 18.6973 137.632 15.3609C140.293 12.0245 144.333 10.3563 149.753 10.3563C155.172 10.3563 159.212 12.0245 161.874 15.3609ZM149.724 17.3281C147.313 17.3281 145.452 18.1863 144.14 19.9027C142.848 21.5998 142.202 24.0298 142.202 27.1926C142.202 30.3555 142.848 32.7951 144.14 34.5115C145.452 36.2279 147.313 37.0861 149.724 37.0861C152.134 37.0861 153.986 36.2279 155.278 34.5115C156.57 32.7951 157.216 30.3555 157.216 27.1926C157.216 24.0298 156.57 21.5998 155.278 19.9027C153.986 18.1863 152.134 17.3281 149.724 17.3281Z" fill="#00643F"/>
</svg>
