<svg width="95" height="160" viewBox="0 0 95 160" fill="none" xmlns="http://www.w3.org/2000/svg">
<path d="M94.1053 135.57V157.519C94.1053 158.754 92.5155 160 90.911 160H64.4801C43.0561 160 25.5097 146.383 25.5097 129.731V88.1414C25.5097 80.9174 18.0514 74.9167 5.85372 73.3011C2.67429 72.8741 0 70.8316 0 68.3274V5.13523C0 2.30797 2.95657 0 6.37372 0H63.7966C65.6241 0 66.9909 1.06167 66.9909 2.48107V24.603C66.7681 25.8377 65.4012 26.8994 63.7966 26.8994H44.2001C42.6103 26.8994 41.0058 27.9611 41.0058 29.3805V62.1305C41.0058 63.2268 41.9863 64.1269 43.3383 64.4385C57.4378 67.635 66.5304 76.3015 66.5304 87.2528V119.818C66.5304 129.373 71.7749 133.089 81.3429 133.089H90.911C92.7384 133.089 94.1053 134.151 94.1053 135.57Z" fill="#FF6421"/>
</svg>
