<svg width="13" height="10" viewBox="0 0 13 10" fill="none" xmlns="http://www.w3.org/2000/svg">
<g clip-path="url(#clip0_1110_427)">
<path d="M4.64399 1.07244L2.38549 2.984C2.32653 3.03389 2.25397 3.0611 2.17687 3.0611H0.641723C0.285714 3.0611 0 3.34908 0 3.70282V6.30146C0 6.65747 0.287982 6.94318 0.641723 6.94318H2.17687C2.25397 6.94318 2.32653 6.97039 2.38549 7.02028L4.64399 8.93185C5.06122 9.28559 5.70295 8.98853 5.70295 8.44205V1.56223C5.70295 1.01575 5.06349 0.718694 4.64399 1.07244Z" fill="#FBFFF6"/>
<path d="M10.5559 0.117813C10.37 -0.0499873 10.0843 -0.0363819 9.91647 0.149559C9.74867 0.3355 9.76227 0.621215 9.94821 0.789015C11.1364 1.86384 11.8167 3.39899 11.8167 4.9999C11.8167 6.60081 11.1342 8.13595 9.94595 9.21078C9.76 9.37858 9.7464 9.6643 9.9142 9.85251C10.0026 9.95228 10.1274 10.0022 10.2521 10.0022C10.3609 10.0022 10.4698 9.96362 10.5559 9.88425C11.9346 8.63936 12.726 6.85931 12.726 5.00217C12.726 3.14502 11.9346 1.36271 10.5559 0.117813Z" fill="#FBFFF6"/>
<path d="M9.17921 1.47823C8.98874 1.31497 8.70302 1.33538 8.53976 1.52585C8.37649 1.71633 8.3969 2.00204 8.58737 2.16531C9.41504 2.87733 9.88896 3.91134 9.88896 4.99977C9.88896 6.08821 9.41504 7.12449 8.58964 7.83424C8.39917 7.99751 8.37876 8.28322 8.54202 8.4737C8.63273 8.57801 8.75744 8.63243 8.88669 8.63243C8.991 8.63243 9.09758 8.59615 9.18148 8.52358C10.2087 7.63923 10.796 6.35578 10.796 4.99977C10.796 3.64377 10.2064 2.36259 9.18148 1.47823H9.17921Z" fill="#FBFFF6"/>
<path d="M7.78929 2.82771C7.58974 2.67578 7.3063 2.71433 7.15437 2.91388C7.00244 3.11342 7.04099 3.39687 7.24054 3.5488C7.69859 3.89801 7.95936 4.42635 7.95936 5.00005C7.95936 5.57374 7.69632 6.10209 7.24054 6.45129C7.04099 6.60322 7.00244 6.88894 7.15437 7.08621C7.24281 7.20413 7.37886 7.26535 7.51491 7.26535C7.61015 7.26535 7.70766 7.23587 7.78929 7.17238C8.4741 6.65084 8.86639 5.85946 8.86639 5.00005C8.86639 4.14064 8.4741 3.34925 7.78929 2.82771Z" fill="#FBFFF6"/>
</g>
<defs>
<clipPath id="clip0_1110_427">
<rect width="12.7234" height="10" fill="white"/>
</clipPath>
</defs>
</svg>
